<?xml version="1.0" standalone="no"?>
<!DOCTYPE svg PUBLIC "-//W3C//DTD SVG 20010904//EN"
 "http://www.w3.org/TR/2001/REC-SVG-20010904/DTD/svg10.dtd">
<svg version="1.0" xmlns="http://www.w3.org/2000/svg"
 width="1526.000000pt" height="1526.000000pt" viewBox="0 0 1526.000000 1526.000000"
 preserveAspectRatio="xMidYMid meet">
<metadata>
Created by potrace 1.11, written by Peter Selinger 2001-2013
</metadata>
<g transform="translate(0.000000,1526.000000) scale(0.100000,-0.100000)"
fill="#000000" stroke="none">
<path d="M0 7630 l0 -7630 7630 0 7630 0 0 7630 0 7630 -7630 0 -7630 0 0
-7630z m12000 6395 l0 -295 -3872 -2 -3873 -3 -85 -28 c-283 -95 -481 -303
-562 -592 l-23 -80 -3 -2245 c-2 -1578 0 -2270 8 -2329 45 -340 279 -607 620
-705 l75 -21 3400 -5 3400 -5 105 -27 c339 -85 631 -277 830 -548 76 -104 181
-315 215 -435 57 -199 55 -99 55 -2405 0 -2307 2 -2207 -55 -2405 -30 -105
-115 -286 -175 -376 -214 -319 -512 -521 -910 -616 -71 -17 -266 -18 -3967
-20 l-3893 -3 0 295 0 295 3824 0 c3440 0 3832 2 3907 16 338 63 600 325 665
662 21 112 21 4208 -1 4309 -69 325 -281 551 -611 650 -56 17 -239 18 -3454
23 l-3395 6 -100 22 c-571 131 -981 543 -1107 1115 l-23 102 0 2345 c0 2174 1
2352 17 2436 99 523 475 947 978 1105 198 61 -100 57 4133 58 l3877 1 0 -295z
m-1391 -1195 c155 -20 289 -117 359 -259 l37 -75 3 -1810 c3 -2024 8 -1877
-68 -1994 -64 -100 -174 -177 -288 -201 -39 -8 -831 -11 -2910 -11 -2539 0
-2864 2 -2917 15 -163 43 -299 187 -334 353 -15 70 -16 3534 -1 3613 35 185
201 345 383 368 91 12 5645 13 5736 1z m56 -6324 c114 -30 213 -101 275 -198
76 -117 71 30 68 -1994 l-3 -1810 -37 -75 c-47 -95 -130 -177 -225 -222 l-68
-32 -2910 -3 c-2879 -2 -2911 -2 -2969 18 -156 53 -276 189 -306 349 -15 79
-14 3543 1 3613 35 164 171 309 330 352 78 21 5766 23 5844 2z"/>
</g>
</svg>
